# AST/ASF file generated using VICON BodyLanguage
# -----------------------------------------------
:version 1.10
:name VICON
:units
  mass 1.0
  length 0.45
  angle deg
:documentation
   .ast/.asf automatically generated from VICON data using
   VICON BodyBuilder and BodyLanguage model FoxedUp or BRILLIANT.MOD
:root
   order TX TY TZ RX RY RZ
   axis XYZ
   position 0 0 0  
   orientation 0 0 0 
:bonedata
  begin
     id 1 
     name lhipjoint
     direction 0.623529 -0.717805 0.309788 
     length 2.23224 
     axis 0 0 0  XYZ
  end
  begin
     id 2 
     name lfemur
     direction 0.34202 -0.939693 0  
     length 7.11402  
     axis 0 0 20  XYZ
    dof rx ry rz
    limits (-160.0 20.0)
           (-70.0 70.0)
           (-60.0 70.0)
  end
  begin
     id 3 
     name ltibia
     direction 0.34202 -0.939693 0   
     length 6.78496   
     axis 0 0 20   XYZ
    dof rx
    limits (-10.0 170.0)
  end
  begin
     id 4 
     name lfoot
     direction 0.125078 -0.343648 0.930732   
     length 1.84054   
     axis -90 7.62852e-016 20   XYZ
    dof rx rz
    limits (-45.0 90.0)
           (-70.0 20.0)
  end
  begin
     id 5 
     name ltoes
     direction 1.53565e-011 -4.21893e-011 1   
     length 0.916474   
     axis -90 7.62852e-016 20   XYZ
    dof rx
    limits (-90.0 20.0)
  end
  begin
     id 6 
     name rhipjoint
     direction -0.564688 -0.757748 0.327026   
     length 2.11457  
     axis 0 0 0  XYZ 
  end
  begin
     id 7 
     name rfemur
     direction -0.34202 -0.939693 0   
     length 7.14609   
     axis 0 0 -20   XYZ
    dof rx ry rz
    limits (-160.0 20.0)
           (-70.0 70.0)
           (-70.0 60.0)
  end
  begin
     id 8 
     name rtibia
     direction -0.34202 -0.939693 0   
     length 6.78101   
     axis 0 0 -20   XYZ
    dof rx
    limits (-10.0 170.0)
 end
 begin
     id 9 
     name rfoot
     direction -0.0992671 -0.272734 0.956955   
     length 1.96168  
     axis -90 -7.62852e-016 -20   XYZ
    dof rx rz
    limits (-45.0 90.0)
           (-20.0 70.0)
  end
  begin
     id 10 
     name rtoes
     direction -1.5356e-011 -4.21891e-011 1   
     length 0.982933   
     axis -90 -7.62852e-016 -20   XYZ
    dof rx
    limits (-90.0 20.0)
  end
  begin
     id 11 
     name lowerback
     direction -0.00596953 0.998668 0.0512524   
     length 1.87557   
     axis 0 0 0   XYZ
    dof rx ry rz
    limits (-20.0 45.0)
           (-30.0 30.0)
           (-30.0 30.0)
  end
  begin
     id 12 
     name upperback
     direction 0.00584879 0.999652 0.0257308   
     length 1.87883   
     axis 0 0 0   XYZ
    dof rx ry rz
    limits (-20.0 45.0)
           (-30.0 30.0)
           (-30.0 30.0)
  end
  begin
     id 13 
     name thorax
     direction 0.010104 0.999947 0.00178881   
     length 1.87779   
     axis 0 0 0   XYZ
    dof rx ry rz
    limits (-20.0 45.0)
           (-30.0 30.0)
           (-30.0 30.0)
  end
  begin
     id 14 
     name lowerneck
     direction 0.0120771 0.995934 -0.0892773   
     length 1.40897   
     axis 0 0 0   XYZ
    dof rx ry rz
    limits (-20.0 45.0)
           (-30.0 30.0)
           (-30.0 30.0)
  end
  begin
     id 15 
     name upperneck
     direction -0.030568 0.999465 -0.0116366   
     length 1.38661   
     axis 0 0 0   XYZ
    dof rx ry rz
    limits (-20.0 45.0)
           (-30.0 30.0)
           (-30.0 30.0)
  end
  begin
     id 16
     name head
     direction -0.0170715 0.999854 -0.00104426  
     length 1.47052  
     axis 0 0 0   XYZ
    dof rx ry rz
    limits (-20.0 45.0)
           (-30.0 30.0)
           (-30.0 30.0)
  end
  begin
     id 17 
     name lclavicle
     direction 0.977763 0.206143 0.038532  
     length 3.02424  
     axis 0 0 0   XYZ
    dof ry rz
    limits (-20.0 10.0)
           (0.0 20.0)
  end
  begin
     id 18 
     name lhumerus
     direction 1 -4.48965e-011 -2.62654e-027   
     length 4.68382   
     axis 180 -30 -90   XYZ
    dof rx ry rz
    limits (-60.0 90.0)
           (-90.0 90.0)
           (-90.0 90.0)
  end
  begin
     id 19
     name lradius
     direction 1 -4.48973e-011 -1.54954e-027   
     length 2.98124   
     axis 180 -30 -90   XYZ
    dof rx
    limits (-10.0 170.0)
  end
  begin
     id 20
     name lwrist
     direction 1 -4.48959e-011 7.20928e-028   
     length 1.49062   
     axis -5.52449e-016 90 90   XYZ
    dof ry
    limits (-180.0 0.0)
 end
  begin
     id 21 
     name lhand
     direction 1 -4.48971e-011 1.44186e-027   
     length 0.707595   
     axis -9.20027e-016 90 90   XYZ
    dof rx rz
    limits (-90.0 90.0)
           (-45.0 45.0)
  end
  begin
     id 22 
     name lfingers
     direction 1 -4.48985e-011 2.88371e-027   
     length 0.570481   
     axis -1.84005e-015 90 90   XYZ
    dof rx
    limits (0.0 90.0)
  end
  begin
     id 23
     name lthumb
     direction 0.707107 -6.34929e-011 0.707107   
     length 0.819101   
     axis -90 45 2.85299e-015   XYZ
    dof rx rz
    limits (-45.0 45.0)
           (-45.0 45.0)
  end
  begin
     id 24 
     name rclavicle
     direction -0.958661 0.284411 -0.00895327   
     length 3.11921  
     axis 0 0 0   XYZ 
    dof ry rz
    limits (-10.0 20.0)
           (-20.0 0.0)
  end
  begin
     id 25 
     name rhumerus
     direction -1 -4.48963e-011 -4.22193e-027  
     length 4.75876   
     axis 180 30 90   XYZ
    dof rx ry rz
    limits (-90.0 60.0)
           (-90.0 90.0)
           (-90.0 90.0)
  end
  begin
     id 26 
     name rradius
     direction -1 -4.48968e-011 -1.07616e-027   
     length 2.93293   
     axis 180 30 90   XYZ
    dof rx
    limits (-10.0 170.0)
  end
  begin
     id 27 
     name rwrist
     direction -1 -4.48965e-011 7.20928e-028   
     length 1.46647   
     axis -5.52449e-016 -90 -90   XYZ
    dof ry
    limits (-180.0 0.0)
  end
  begin
     id 28
     name rhand
     direction -1 -4.48971e-011 1.44186e-027   
     length 0.831748   
     axis -9.20027e-016 -90 -90   XYZ
    dof rx rz
    limits (-90.0 90.0)
           (-45.0 45.0)
  end
  begin
     id 29
     name rfingers
     direction -1 -4.48961e-011 2.88371e-027   
     length 0.670577   
     axis -1.84005e-015 -90 -90   XYZ
    dof rx
    limits (0.0 90.0)
  end
  begin
     id 30
     name rthumb
     direction -0.707107 -6.34929e-011 0.707107   
     length 0.962818   
     axis -90 -45 -2.85299e-015   XYZ
    dof rx rz
    limits (-45.0 45.0)
           (-45.0 45.0)
  end
:hierarchy
  begin
    root lhipjoint rhipjoint lowerback
    lhipjoint lfemur
    lfemur ltibia
    ltibia lfoot
    lfoot ltoes
    rhipjoint rfemur
    rfemur rtibia
    rtibia rfoot
    rfoot rtoes
    lowerback upperback
    upperback thorax
    thorax lowerneck lclavicle rclavicle
    lowerneck upperneck
    upperneck head
    lclavicle lhumerus
    lhumerus lradius
    lradius lwrist
    lwrist lhand lthumb
    lhand lfingers
    rclavicle rhumerus
    rhumerus rradius
    rradius rwrist
    rwrist rhand rthumb
    rhand rfingers
  end

#!OML:ASF E:\id_vita\Project 1\Capture day 1\Session 1\Female.ASF
:FULLY-SPECIFIED
:DEGREES
471
root -4.17706 16.2113 -0.134895 374.422 -96.6369 -361.761
lowerback -18.7737 1.73277 -3.40915
upperback -5.00199 2.64679 -0.854841
thorax 4.98678 1.13971 1.60689
lowerneck 12.8868 -6.03577 -10.4855
upperneck -9.71102 -8.79513 10.6817
head -4.02944 -4.66745 5.58405
rclavicle 2.41523e-014 -1.98785e-015
rhumerus -25.4881 -12.1167 -92.3988
rradius 26.2273
rwrist 13.1398
rhand -12.7289 11.7209
rfingers 7.12502
rthumb 13.3545 -17.8311
lclavicle 2.41523e-014 -1.98785e-015
lhumerus -121.438 41.3079 -38.4088
lradius 12.4484
lwrist -110.562
lhand -2.63832 25.5647
lfingers 7.12502
lthumb 23.061 54.2048
rfemur 5.46497 -1.25262 20.3583
rtibia 28.351
rfoot 2.56548 20.0568
rtoes -8.71202
lfemur -38.7542 -6.82698 -19.8189
ltibia 28.0921
lfoot -9.96014 -0.131885
ltoes 1.58862
472
root -4.37842 16.213 -0.145426 376.713 -96.664 -364.362
lowerback -18.6153 1.63611 -3.81128
upperback -5.13635 2.57979 -0.939901
thorax 4.74632 1.10765 1.72029
lowerneck 13.4607 -6.09221 -10.5704
upperneck -9.91255 -8.92185 10.7652
head -4.16294 -4.74123 5.66385
rclavicle -1.44119e-015 7.15625e-015
rhumerus -26.3888 -13.7771 -91.7159
rradius 25.2893
rwrist 14.2583
rhand -12.7113 11.5399
rfingers 7.12502
rthumb 13.3714 -18.011
lclavicle -1.44119e-015 7.15625e-015
lhumerus -118.675 42.8174 -34.661
lradius 12.2931
lwrist -107.828
lhand -3.04426 25.5146
lfingers 7.12502
lthumb 22.6715 54.2029
rfemur 4.70159 -1.0957 20.1151
rtibia 30.9789
rfoot 5.26488 19.608
rtoes -7.5491
lfemur -37.9372 -6.29192 -20.5104
ltibia 28.6176
lfoot -10.8176 -1.18864
ltoes 4.13158
473
root -4.52688 16.2006 -0.125214 379.586 -96.6004 -367.274
lowerback -18.529 1.50094 -3.89018
upperback -5.0788 2.42568 -1.0599
thorax 4.77268 1.03161 1.60237
lowerneck 13.1862 -6.3203 -10.5336
upperneck -9.83277 -9.22202 10.5554
head -4.07225 -4.87147 5.58646
rclavicle -2.88238e-015 1.11319e-014
rhumerus -26.6211 -15.4894 -91.0403
rradius 24.2748
rwrist 15.5482
rhand -12.5651 11.5863
rfingers 7.12502
rthumb 13.5124 -17.9553
lclavicle -2.88238e-015 1.11319e-014
lhumerus -118.475 43.7831 -34.125
lradius 12.2256
lwrist -107.604
lhand -3.95246 24.5414
lfingers 7.12502
lthumb 21.7996 53.3337
rfemur 3.61096 -1.76701 19.187
rtibia 33.6609
rfoot 8.21436 19.6007
rtoes -3.13881
lfemur -37.7507 -6.24131 -21.3764
ltibia 29.0236
lfoot -10.8858 -1.48824
ltoes 5.19597
474
root -4.69761 16.2136 -0.119875 381.137 -96.5969 -368.946
lowerback -18.6293 1.36055 -4.02825
upperback -4.9327 2.28526 -1.07534
thorax 4.98426 0.958367 1.63914
lowerneck 13.1723 -6.41292 -10.7697
upperneck -10.0749 -9.36428 10.7015
head -4.10837 -4.9405 5.68284
rclavicle -5.01931e-015 -5.56597e-015
rhumerus -26.7699 -17.4375 -90.1883
rradius 22.8811
rwrist 17.6077
rhand -13.0229 11.9279
rfingers 7.12502
rthumb 13.0711 -17.6425
lclavicle -5.01931e-015 -5.56597e-015
lhumerus -117.299 45.243 -32.1553
lradius 12.1499
lwrist -106.09
lhand -4.67544 23.9421
lfingers 7.12502
lthumb 21.1052 52.8135
rfemur 2.58784 -1.79986 18.8315
rtibia 36.3418
rfoot 10.4436 18.8044
rtoes -2.19461
lfemur -36.9729 -6.26228 -21.7903
ltibia 29.2814
lfoot -11.1356 -1.48678
ltoes 7.63523
475
root -4.87038 16.2359 -0.115995 381.561 -96.6853 -369.375
lowerback -18.8465 1.27487 -4.05826
upperback -4.83424 2.19351 -1.04207
thorax 5.20708 0.907916 1.67911
lowerneck 13.2266 -6.43618 -11.2166
upperneck -10.3087 -9.43264 11.0979
head -4.13741 -4.98429 5.89114
rclavicle 2.56432e-014 -1.19271e-015
rhumerus -26.9732 -19.3674 -89.2372
rradius 21.4828
rwrist 19.5903
rhand -13.9124 12.0705
rfingers 7.12502
rthumb 12.2135 -17.5529
lclavicle 2.56432e-014 -1.19271e-015
lhumerus -114.157 47.3156 -27.5276
lradius 12.0905
lwrist -102.762
lhand -4.16074 24.9259
lfingers 7.12502
lthumb 21.5996 53.7413
rfemur 1.35397 -1.7541 18.6675
rtibia 39.0896
rfoot 11.6838 18.1931
rtoes -5.45421
lfemur -36.3579 -6.34584 -22.0013
ltibia 29.638
lfoot -11.4453 -1.26384
ltoes 8.72212
476
root -5.04206 16.2457 -0.111925 381.304 -96.8539 -369.297
lowerback -18.4215 1.22308 -4.07701
upperback -5.09575 2.08294 -0.98039
thorax 4.70463 0.863734 1.71486
lowerneck 14.1807 -6.71453 -11.246
upperneck -10.8302 -9.93254 10.6532
head -4.41844 -5.20552 5.8458
rclavicle 2.03754e-015 4.77083e-015
rhumerus -28.104 -21.0929 -88.0271
rradius 20.6599
rwrist 20.9303
rhand -13.8812 11.6114
rfingers 7.12502
rthumb 12.2437 -18.0103
lclavicle 2.03754e-015 4.77083e-015
lhumerus -110.968 48.3647 -23.2799
lradius 12.0751
lwrist -100.47
lhand -3.85945 25.4853
lfingers 7.12502
lthumb 21.8889 54.2671
rfemur 0.233642 -1.67674 18.5222
rtibia 41.9648
rfoot 12.6493 17.3499
rtoes -8.80378
lfemur -35.8361 -6.44511 -22.1955
ltibia 29.9608
lfoot -11.5672 -0.868422
ltoes 7.07802
477
root -5.20783 16.2593 -0.100558 380.974 -97.0585 -369.291
lowerback -18.1652 1.20268 -3.91827
upperback -5.01861 2.02662 -0.993655
thorax 4.6622 0.840498 1.5937
lowerneck 14.1607 -6.69862 -11.1848
upperneck -10.7961 -9.92455 10.4075
head -4.42281 -5.18522 5.75658
rclavicle -8.49804e-015 1.94809e-014
rhumerus -28.791 -22.4451 -87.1192
rradius 20.1084
rwrist 21.9043
rhand -13.0379 10.5459
rfingers 7.12502
rthumb 13.0566 -19.0255
lclavicle -8.49804e-015 1.94809e-014
lhumerus -108.271 49.664 -19.7487
lradius 12.0018
lwrist -98.7704
lhand -4.38796 24.8659
lfingers 7.12502
lthumb 21.3814 53.7062
rfemur -0.805472 -1.69383 18.3154
rtibia 44.8602
rfoot 13.6088 16.2247
rtoes -10.7614
lfemur -34.4822 -6.53509 -22.3571
ltibia 30.1493
lfoot -12.2996 -0.497063
ltoes 7.41131
478
root -5.34129 16.2788 -0.0726729 383.881 -97.442 -372.143
lowerback -17.9993 1.19444 -3.99383
upperback -4.99082 2.03216 -1.14257
thorax 4.60652 0.843981 1.47568
lowerneck 13.4991 -6.52094 -11.1538
upperneck -10.3941 -9.64324 10.2512
head -4.23354 -5.03141 5.64103
rclavicle 2.41523e-014 -1.11319e-014
rhumerus -29.0668 -23.5842 -86.2917
rradius 19.2524
rwrist 22.8219
rhand -12.9555 9.7845
rfingers 7.12502
rthumb 13.1361 -19.7817
lclavicle 2.41523e-014 -1.11319e-014
lhumerus -103.467 51.4357 -13.4649
lradius 11.9449
lwrist -95.173
lhand -4.82415 24.6466
lfingers 7.12502
lthumb 20.9624 53.5338
rfemur -2.41909 -2.1164 17.3274
rtibia 47.7777
rfoot 14.3709 15.2248
rtoes -10.9471
lfemur -33.8423 -6.66212 -23.1593
ltibia 30.1355
lfoot -12.6615 -0.119342
ltoes 7.73094
479
root -5.51807 16.309 -0.0873028 383.57 -97.6797 -372.161
lowerback -18.0918 1.0814 -4.29054
upperback -4.73678 1.95821 -1.00983
thorax 4.91469 0.802523 1.77496
lowerneck 14.0258 -6.74756 -11.2134
upperneck -11.1652 -9.99971 10.1546
head -4.51806 -5.19415 5.69394
rclavicle -1.44119e-015 -5.1684e-015
rhumerus -29.4605 -26.2981 -84.6733
rradius 17.8372
rwrist 25.6902
rhand -13.4299 9.75603
rfingers 7.12502
rthumb 12.6788 -19.8391
lclavicle -1.44119e-015 -5.1684e-015
lhumerus -97.314 52.8505 -5.57704
lradius 11.9913
lwrist -90.7386
lhand -5.1953 24.9764
lfingers 7.12502
lthumb 20.6058 53.9027
rfemur -3.52983 -1.67684 17.5757
rtibia 50.502
rfoot 14.3663 12.6359
rtoes -11.2142
lfemur -33.0462 -6.40769 -23.3159
ltibia 30.2182
lfoot -13.0583 0.0243172
ltoes 7.0194
480
root -5.65479 16.3336 -0.0658344 384.697 -97.8703 -373.335
lowerback -17.614 1.03021 -4.19984
upperback -4.93729 1.83915 -1.08921
thorax 4.45988 0.754268 1.59988
lowerneck 14.48 -6.78745 -11.3345
upperneck -11.4577 -10.119 10.113
head -4.66549 -5.2461 5.74145
rclavicle 7.0817e-015 1.98785e-015
rhumerus -30.6715 -30.2397 -82.1907
rradius 16.3283
rwrist 30.0698
rhand -13.8152 9.80976
rfingers 7.12502
rthumb 12.3073 -19.808
lclavicle 7.0817e-015 1.98785e-015
lhumerus -91.6215 53.3242 1.3756
lradius 12.0408
lwrist -87.217
lhand -5.73737 24.8303
lfingers 7.12502
lthumb 20.0848 53.8121
rfemur -5.02479 -2.0161 17.1592
rtibia 53.1516
rfoot 13.9978 10.0455
rtoes -9.41172
lfemur -32.4508 -6.48353 -23.7976
ltibia 30.0828
lfoot -13.2094 0.28728
ltoes 6.20418
481
root -5.80679 16.354 -0.0586123 384.296 -98.1606 -373.118
lowerback -17.3957 0.975415 -4.15488
upperback -4.91993 1.75014 -1.05262
thorax 4.36793 0.7142 1.5904
lowerneck 14.3827 -6.84038 -11.322
upperneck -11.397 -10.205 9.89413
head -4.63474 -5.27121 5.66633
rclavicle 1.14301e-015 9.54166e-015
rhumerus -31.9473 -34.35 -79.3474
rradius 14.9402
rwrist 34.6341
rhand -13.9406 9.73986
rfingers 7.12502
rthumb 12.1864 -19.8852
lclavicle 1.14301e-015 9.54166e-015
lhumerus -87.3638 53.7407 6.4924
lradius 12.1184
lwrist -84.8546
lhand -6.18075 24.4048
lfingers 7.12502
lthumb 19.6586 53.4308
rfemur -6.3479 -2.03641 17.1324
rtibia 55.6038
rfoot 13.4254 6.98537
rtoes -7.01782
lfemur -31.5726 -6.46284 -23.9603
ltibia 29.9648
lfoot -13.4876 0.670204
ltoes 6.56477
482
root -5.93672 16.3702 -0.0392271 384.37 -98.5432 -373.134
lowerback -17.7176 1.09257 -3.77167
upperback -4.57031 1.89421 -1.27405
thorax 4.92744 0.77744 1.18135
lowerneck 13.8634 -6.98387 -11.1245
upperneck -11.4578 -10.3082 9.89969
head -4.56595 -5.32363 5.61677
rclavicle 2.51463e-014 -2.18663e-014
rhumerus -33.0433 -39.4112 -76.3653
rradius 13.8443
rwrist 39.8963
rhand -13.7117 9.81465
rfingers 7.12502
rthumb 12.4071 -19.7971
lclavicle 2.51463e-014 -2.18663e-014
lhumerus -83.135 54.7815 11.0322
lradius 12.1869
lwrist -83.1232
lhand -6.42315 24.233
lfingers 7.12502
lthumb 19.4255 53.2826
rfemur -8.02103 -2.32068 16.8312
rtibia 57.9821
rfoot 12.5251 4.41373
rtoes -4.75625
lfemur -30.9679 -6.44159 -24.26
ltibia 29.833
lfoot -13.6713 1.08793
ltoes 5.92111
483
root -6.06652 16.3855 -0.0307128 383.419 -98.847 -372.091
lowerback -17.075 1.04559 -3.72037
upperback -5.04118 1.74716 -1.13099
thorax 4.08694 0.718465 1.25303
lowerneck 14.1233 -6.88353 -11.1935
upperneck -11.1014 -10.2584 9.5461
head -4.52275 -5.27746 5.51298
rclavicle 5.7896e-015 -1.19271e-015
rhumerus -35.5979 -42.0417 -72.9536
rradius 13.2934
rwrist 43.5764
rhand -13.3475 9.53208
rfingers 7.12502
rthumb 12.7582 -20.0581
lclavicle 5.7896e-015 -1.19271e-015
lhumerus -78.0535 53.9628 17.3614
lradius 12.4172
lwrist -79.7483
lhand -6.6641 24.2948
lfingers 7.12502
lthumb 19.1939 53.3676
rfemur -9.72281 -2.48766 16.8517
rtibia 60.1515
rfoot 11.7172 1.66666
rtoes -2.70027
lfemur -30.4086 -6.22892 -24.3803
ltibia 29.6666
lfoot -13.8063 1.2915
ltoes 4.64721
484
root -6.19534 16.4056 -0.0214413 385.38 -99.3322 -373.94
lowerback -17.4069 1.03131 -3.85978
upperback -4.85781 1.7885 -1.33802
thorax 4.45866 0.729424 1.13043
lowerneck 14.2698 -6.96576 -10.9252
upperneck -11.536 -10.3556 9.27063
head -4.70044 -5.30934 5.41783
rclavicle -2.3059e-014 3.18055e-015
rhumerus -37.3469 -45.3432 -70.1008
rradius 12.8311
rwrist 47.3701
rhand -12.846 8.70044
rfingers 7.12502
rthumb 13.2417 -20.859
lclavicle -2.3059e-014 3.18055e-015
lhumerus -73.1233 53.9841 22.8328
lradius 12.5636
lwrist -77.2871
lhand -7.02488 24.3024
lfingers 7.12502
lthumb 18.8469 53.4093
rfemur -11.508 -2.63061 16.3174
rtibia 62.1345
rfoot 11.0471 -0.821085
rtoes -1.85344
lfemur -29.8607 -6.02726 -25.0595
ltibia 29.4464
lfoot -13.96 1.48435
ltoes 3.91105
485
root -6.33959 16.4301 -0.023024 386.009 -99.7207 -374.649
lowerback -17.0337 0.920657 -4.11745
upperback -5.10036 1.64413 -1.31566
thorax 3.99858 0.664264 1.25972
lowerneck 14.5655 -6.89263 -10.8327
upperneck -11.5226 -10.3192 8.83583
head -4.78006 -5.26397 5.28208
rclavicle 1.17034e-014 2.50469e-014
rhumerus -40.0077 -47.1891 -66.8272
rradius 12.5462
rwrist 50.0495
rhand -12.5505 8.32242
rfingers 7.12502
rthumb 13.5265 -21.2182
lclavicle 1.17034e-014 2.50469e-014
lhumerus -69.3676 53.1293 27.3341
lradius 12.769
lwrist -74.8909
lhand -7.46361 24.0687
lfingers 7.12502
lthumb 18.4249 53.2161
rfemur -12.969 -2.47549 16.2325
rtibia 63.8402
rfoot 10.2341 -3.65908
rtoes -2.69155
lfemur -29.0924 -5.73291 -25.4435
ltibia 29.1898
lfoot -14.2218 1.5822
ltoes 3.71456
